<svg width="25" height="16" viewBox="0 0 25 16" fill="none" xmlns="http://www.w3.org/2000/svg">
<g clip-path="url(#clip0_8733_1150)">
<path d="M1.33849 0H23.0415C23.7792 0 24.38 0.566814 24.38 1.26283V14.7372C24.38 15.4332 23.7792 16 23.0415 16H1.33849C0.600775 16.0042 0 15.4374 0 14.7413V1.26283C0 0.566814 0.600775 0 1.33849 0Z" fill="#009B3A"/>
<path d="M1.87305 8.00208L12.1923 14.2162L22.5115 8.00208L12.1923 1.78796L1.87305 8.00208Z" fill="#FEDF00"/>
<path d="M12.1923 3.89685C14.5954 3.89685 16.5435 5.73483 16.5435 8.00209C16.5435 10.2693 14.5954 12.1073 12.1923 12.1073C9.78917 12.1073 7.84106 10.2693 7.84106 8.00209C7.84106 5.73483 9.78917 3.89685 12.1923 3.89685Z" fill="#002776"/>
<path d="M8.21215 6.34331C8.69807 6.27663 9.19725 6.24329 9.70526 6.24329C12.2939 6.24329 14.6617 7.12268 16.4993 8.57723C16.4684 8.80229 16.4154 9.01901 16.3447 9.2274C14.5866 7.73534 12.2586 6.82677 9.70526 6.82677C9.11773 6.82677 8.53905 6.87678 7.97803 6.96847C8.03987 6.75175 8.11939 6.54336 8.21215 6.34331Z" fill="white"/>
<path fill-rule="evenodd" clip-rule="evenodd" d="M8.47262 6.73092C8.53447 6.72258 8.57422 6.66424 8.56539 6.59755C8.55655 6.53087 8.49913 6.48086 8.4417 6.48919C8.38427 6.49753 8.3401 6.55587 8.34893 6.62256C8.35777 6.68924 8.41078 6.73509 8.47262 6.73092ZM8.48146 6.80177C8.58306 6.78927 8.65816 6.69341 8.64049 6.58505C8.62723 6.47669 8.53447 6.40167 8.42845 6.41417C8.32685 6.42667 8.25617 6.52253 8.26942 6.63089C8.28709 6.73509 8.37986 6.81428 8.48146 6.80177Z" fill="#009B3A"/>
<path fill-rule="evenodd" clip-rule="evenodd" d="M8.8791 6.54338L9.03813 6.53504C9.06905 6.53087 9.09114 6.51004 9.08672 6.48086C9.08672 6.45169 9.06021 6.43085 9.02929 6.43502L8.87026 6.44752L8.8791 6.54338ZM8.81725 6.76844H8.89235L8.88352 6.6184L9.04696 6.60589C9.11764 6.60173 9.17507 6.54338 9.16623 6.47669C9.16182 6.41001 9.09997 6.36 9.02929 6.36416L8.79517 6.38084L8.81725 6.76844Z" fill="#009B3A"/>
<path d="M9.17056 6.74342C9.16614 6.68924 9.15731 6.56421 9.06896 6.57254L8.9541 6.58088C9.08221 6.57254 9.09104 6.69341 9.09988 6.75175L9.17056 6.74342Z" fill="#009B3A"/>
<path fill-rule="evenodd" clip-rule="evenodd" d="M9.41814 6.66006H9.52857C9.59042 6.66006 9.63901 6.61005 9.63901 6.5517V6.51836C9.63901 6.46001 9.586 6.41416 9.52416 6.41416H9.4093L9.41814 6.66006ZM9.34304 6.73508H9.53741C9.63459 6.72674 9.71411 6.65172 9.71411 6.56003V6.50585C9.71411 6.41416 9.63018 6.33914 9.53299 6.33914H9.33862L9.34304 6.73508Z" fill="#009B3A"/>
<path d="M9.86865 6.73091L10.2441 6.74341V6.67256L9.94375 6.66006L9.94817 6.56003L10.1823 6.56837L10.1867 6.50168L9.94817 6.49335L9.95258 6.41416L10.2353 6.42666L10.2397 6.35164L9.88632 6.33914L9.86865 6.73091Z" fill="#009B3A"/>
<path d="M10.3943 6.75177L10.465 6.7601L10.4915 6.4892L10.5489 6.76427L10.6152 6.77261L10.7212 6.51004L10.6947 6.77677L10.7654 6.78094L10.8051 6.39334L10.6991 6.385L10.5931 6.64341L10.5356 6.3725L10.434 6.36417L10.3943 6.75177Z" fill="#009B3A"/>
<path d="M11.2556 6.84345L11.5604 6.89346L11.5737 6.82678L11.3351 6.78927L11.3528 6.70175L11.5428 6.73092L11.556 6.66841L11.3661 6.63506L11.3749 6.57255L11.6046 6.61006L11.6178 6.54337L11.3175 6.49753L11.2556 6.84345Z" fill="#009B3A"/>
<path fill-rule="evenodd" clip-rule="evenodd" d="M12.1745 6.79761L12.3291 6.83512C12.3556 6.83929 12.3866 6.82679 12.3954 6.79761C12.3998 6.77261 12.3866 6.74343 12.3556 6.7351L12.201 6.69759L12.1745 6.79761ZM12.042 6.98933L12.1171 7.006L12.1568 6.8643L12.3159 6.90181C12.3866 6.91848 12.4572 6.88097 12.4749 6.81428C12.4926 6.7476 12.4528 6.68092 12.3821 6.66424L12.1524 6.6059L12.042 6.98933Z" fill="#009B3A"/>
<path fill-rule="evenodd" clip-rule="evenodd" d="M12.6914 6.93097L12.8416 6.97682C12.8681 6.98515 12.899 6.97265 12.9079 6.94347C12.9167 6.91847 12.9034 6.88929 12.8725 6.88096L12.7223 6.83511L12.6914 6.93097ZM12.55 7.11852L12.6251 7.13936L12.6737 7.00182L12.8328 7.04767C12.899 7.06851 12.9741 7.031 12.9962 6.96848C13.0183 6.90596 12.9785 6.83511 12.9123 6.81427L12.687 6.74759L12.55 7.11852Z" fill="#009B3A"/>
<path d="M12.8857 7.21854C12.9034 7.16436 12.9431 7.04767 12.8592 7.02266L12.7532 6.98932C12.8769 7.02683 12.8371 7.14353 12.8194 7.19771L12.8857 7.21854Z" fill="#009B3A"/>
<path fill-rule="evenodd" clip-rule="evenodd" d="M13.2524 7.26438C13.3099 7.28522 13.3761 7.24771 13.3982 7.18519C13.4247 7.12268 13.3982 7.05183 13.3408 7.03516C13.2834 7.01432 13.2171 7.05183 13.195 7.11434C13.1685 7.17686 13.195 7.24354 13.2524 7.26438ZM13.2259 7.33107C13.3231 7.36441 13.4336 7.31023 13.4733 7.2102C13.5131 7.11018 13.4689 6.99765 13.3717 6.9643C13.2745 6.93096 13.1641 6.98514 13.1243 7.08517C13.0846 7.18936 13.1243 7.29772 13.2259 7.33107Z" fill="#009B3A"/>
<path fill-rule="evenodd" clip-rule="evenodd" d="M13.7428 7.45193C13.8002 7.47277 13.8665 7.44359 13.8974 7.38108L13.9681 7.41025C13.9239 7.51028 13.809 7.55612 13.7163 7.51861C13.6191 7.4811 13.5793 7.36857 13.6279 7.26855C13.6721 7.16852 13.7869 7.11851 13.8797 7.16019C13.9548 7.18936 13.9946 7.26438 13.9857 7.34357L13.9106 7.31023C13.9062 7.27272 13.8841 7.23937 13.8488 7.22687C13.7958 7.20186 13.7251 7.23521 13.6986 7.29772C13.6677 7.36024 13.6853 7.42692 13.7428 7.45193Z" fill="#009B3A"/>
<path d="M13.8221 7.35193L13.9679 7.41028L13.9414 7.46029L13.8 7.40194L13.8221 7.35193Z" fill="#009B3A"/>
<path d="M13.9106 7.38525L13.968 7.41026L13.8841 7.58947L13.8267 7.56447L13.9106 7.38525Z" fill="#009B3A"/>
<path fill-rule="evenodd" clip-rule="evenodd" d="M14.1933 7.48529L14.3346 7.55198C14.3611 7.56448 14.3921 7.55614 14.4053 7.53114C14.4186 7.50613 14.4053 7.47696 14.3788 7.46445L14.2375 7.39777L14.1933 7.48529ZM14.021 7.64783L14.0917 7.68118L14.1579 7.55198L14.3037 7.62283C14.37 7.652 14.4451 7.62699 14.4804 7.56865C14.5113 7.50613 14.4804 7.43528 14.423 7.40194L14.2109 7.30191L14.021 7.64783Z" fill="#009B3A"/>
<path d="M14.3392 7.79785C14.3657 7.74784 14.4231 7.63948 14.3392 7.60197L14.2375 7.55612C14.3524 7.6103 14.295 7.72283 14.2685 7.76868L14.3347 7.79785H14.3392Z" fill="#009B3A"/>
<path d="M14.4937 7.8729L14.8161 8.04794L14.8559 7.98543L14.5908 7.84372L14.6438 7.7562L14.8515 7.86456L14.8824 7.80621L14.6792 7.69785L14.7189 7.63117L14.9663 7.76037L15.0061 7.69785L14.6969 7.53531L14.4937 7.8729Z" fill="#009B3A"/>
<path d="M15.0988 8.0646C15.0767 8.09794 15.0988 8.13545 15.1474 8.16462C15.196 8.1938 15.2313 8.1938 15.2446 8.17296C15.2888 8.10628 15.0281 8.00625 15.1077 7.88955C15.1783 7.78953 15.2976 7.86871 15.3418 7.89372C15.386 7.91873 15.4566 7.98958 15.4036 8.06877L15.3285 8.02292C15.3506 7.98541 15.3285 7.95207 15.2844 7.93123C15.2402 7.91039 15.2137 7.89789 15.1916 7.93123C15.1518 7.98541 15.408 8.08961 15.3329 8.2063C15.2755 8.29382 15.1739 8.25631 15.1032 8.21464C15.0458 8.1813 14.9619 8.09794 15.0149 8.01459L15.0988 8.0646Z" fill="#009B3A"/>
<path d="M15.5406 8.34384C15.5185 8.37719 15.5406 8.4147 15.5848 8.44387C15.6334 8.47721 15.6687 8.47721 15.682 8.45637C15.7306 8.38969 15.4744 8.28133 15.5627 8.1688C15.6378 8.07294 15.7527 8.15629 15.7968 8.18547C15.841 8.21464 15.9073 8.28966 15.8499 8.36468L15.7748 8.31467C15.8013 8.28133 15.7748 8.24798 15.7394 8.21881C15.7041 8.1938 15.6732 8.1813 15.6467 8.21464C15.6025 8.26466 15.8543 8.38135 15.7703 8.49388C15.7085 8.57724 15.6069 8.53556 15.5451 8.48971C15.4876 8.45221 15.4081 8.36468 15.47 8.28549L15.5406 8.34384Z" fill="#009B3A"/>
<path fill-rule="evenodd" clip-rule="evenodd" d="M16.009 8.73562C16.0576 8.76896 16.1327 8.75645 16.1768 8.70227C16.221 8.64809 16.221 8.57724 16.1768 8.5439C16.1327 8.50639 16.0531 8.52306 16.0134 8.57724C15.9648 8.62725 15.9648 8.70227 16.0134 8.73562H16.009ZM15.9604 8.79396C16.0399 8.85648 16.1636 8.83564 16.2343 8.75229C16.3049 8.66893 16.2961 8.55224 16.2166 8.48972C16.1371 8.4272 16.0134 8.44804 15.9427 8.5314C15.872 8.61475 15.8809 8.73145 15.9604 8.79396Z" fill="#009B3A"/>
<path d="M8.64068 7.08936L8.58325 7.25607L8.6716 7.28524L8.64068 7.08936Z" fill="white"/>
<path d="M8.64054 7.08936L8.69797 7.25607L8.60962 7.28524L8.64054 7.08936Z" fill="white"/>
<path d="M8.81737 7.21021H8.63184V7.29773L8.81737 7.21021Z" fill="white"/>
<path d="M8.81724 7.21021L8.66705 7.3144L8.60962 7.24355L8.81724 7.21021Z" fill="white"/>
<path d="M8.46387 7.21021L8.61406 7.3144L8.66707 7.24355L8.46387 7.21021Z" fill="white"/>
<path d="M8.46387 7.21021H8.6494V7.29773L8.46387 7.21021Z" fill="white"/>
<path d="M8.751 7.40609L8.69357 7.23938L8.60522 7.26855L8.751 7.40609Z" fill="white"/>
<path d="M8.75102 7.40609L8.60083 7.30607L8.65384 7.23105L8.75102 7.40609Z" fill="white"/>
<path d="M8.53003 7.40609L8.68022 7.30607L8.62721 7.23105L8.53003 7.40609Z" fill="white"/>
<path d="M8.53003 7.40609L8.58746 7.23938L8.67581 7.26855L8.53003 7.40609Z" fill="white"/>
<path d="M9.02496 8.81479L8.96753 8.9815L9.05588 9.01067L9.02496 8.81479Z" fill="white"/>
<path d="M9.02482 8.81479L9.08225 8.9815L8.9939 9.01067L9.02482 8.81479Z" fill="white"/>
<path d="M9.20165 8.93567H9.01611V9.02319L9.20165 8.93567Z" fill="white"/>
<path d="M9.20149 8.93567L9.0513 9.03986L8.99829 8.96901L9.20149 8.93567Z" fill="white"/>
<path d="M8.84814 8.93567L8.99834 9.03986L9.05577 8.96901L8.84814 8.93567Z" fill="white"/>
<path d="M8.84814 8.93567H9.03368V9.02319L8.84814 8.93567Z" fill="white"/>
<path d="M9.13528 9.13155L9.07785 8.96484L8.9895 8.99402L9.13528 9.13155Z" fill="white"/>
<path d="M9.1353 9.13156L8.98511 9.03153L9.03812 8.95651L9.1353 9.13156Z" fill="white"/>
<path d="M8.91455 9.13156L9.06474 9.03153L9.01173 8.95651L8.91455 9.13156Z" fill="white"/>
<path d="M8.91455 9.13155L8.97198 8.96484L9.06033 8.99402L8.91455 9.13155Z" fill="white"/>
<path d="M8.49046 9.2149L8.44629 9.35244L8.51697 9.37328L8.49046 9.2149Z" fill="white"/>
<path d="M8.49035 9.2149L8.53894 9.35244L8.46826 9.37328L8.49035 9.2149Z" fill="white"/>
<path d="M8.64045 9.31494H8.48584V9.38579L8.64045 9.31494Z" fill="white"/>
<path d="M8.64054 9.31494L8.51244 9.3983L8.46826 9.33995L8.64054 9.31494Z" fill="white"/>
<path d="M8.34448 9.31494L8.47259 9.3983L8.51676 9.33995L8.34448 9.31494Z" fill="white"/>
<path d="M8.34448 9.31494H8.49909V9.38579L8.34448 9.31494Z" fill="white"/>
<path d="M8.58316 9.47746L8.53457 9.33575L8.45947 9.36076L8.58316 9.47746Z" fill="white"/>
<path d="M8.58316 9.47748L8.45947 9.38995L8.50365 9.3316L8.58316 9.47748Z" fill="white"/>
<path d="M8.4021 9.47748L8.52579 9.38995L8.48161 9.3316L8.4021 9.47748Z" fill="white"/>
<path d="M8.4021 9.47746L8.45069 9.33575L8.52137 9.36076L8.4021 9.47746Z" fill="white"/>
<path d="M9.45329 8.65643L9.42236 8.73562L9.46654 8.74812L9.45329 8.65643Z" fill="white"/>
<path d="M9.45346 8.65643L9.47997 8.73562L9.43579 8.74812L9.45346 8.65643Z" fill="white"/>
<path d="M9.53732 8.71478H9.44897V8.75646L9.53732 8.71478Z" fill="white"/>
<path d="M9.53737 8.71478L9.46227 8.7648L9.44019 8.73145L9.53737 8.71478Z" fill="white"/>
<path d="M9.36499 8.71478L9.44009 8.7648L9.46659 8.73145L9.36499 8.71478Z" fill="white"/>
<path d="M9.36499 8.71478H9.45776V8.75646L9.36499 8.71478Z" fill="white"/>
<path d="M9.50205 8.80645L9.47555 8.72726L9.43579 8.73977L9.50205 8.80645Z" fill="white"/>
<path d="M9.50208 8.80647L9.4314 8.75646L9.4579 8.72311L9.50208 8.80647Z" fill="white"/>
<path d="M9.40039 8.80647L9.47107 8.75646L9.44456 8.72311L9.40039 8.80647Z" fill="white"/>
<path d="M9.40039 8.80645L9.4269 8.72726L9.46665 8.73977L9.40039 8.80645Z" fill="white"/>
<path d="M9.93043 9.25241L9.88184 9.38995L9.95693 9.41495L9.93043 9.25241Z" fill="white"/>
<path d="M9.93056 9.25241L9.97915 9.38995L9.90405 9.41495L9.93056 9.25241Z" fill="white"/>
<path d="M10.0807 9.35245H9.92163V9.42747L10.0807 9.35245Z" fill="white"/>
<path d="M10.0807 9.35245L9.95262 9.43997L9.90845 9.38162L10.0807 9.35245Z" fill="white"/>
<path d="M9.78467 9.35245L9.90836 9.43997L9.95253 9.38162L9.78467 9.35245Z" fill="white"/>
<path d="M9.78467 9.35245H9.93928V9.42747L9.78467 9.35245Z" fill="white"/>
<path d="M10.0233 9.51915L9.97476 9.37744L9.89966 9.39828L10.0233 9.51915Z" fill="white"/>
<path d="M10.0231 9.51913L9.89502 9.43161L9.94361 9.37326L10.0231 9.51913Z" fill="white"/>
<path d="M9.84204 9.51913L9.96573 9.43161L9.92155 9.37326L9.84204 9.51913Z" fill="white"/>
<path d="M9.84204 9.51915L9.88622 9.37744L9.96131 9.39828L9.84204 9.51915Z" fill="white"/>
<path d="M9.80245 9.69003L9.7627 9.80256L9.82012 9.81923L9.80245 9.69003Z" fill="white"/>
<path d="M9.80236 9.69003L9.8377 9.80256L9.78027 9.81923L9.80236 9.69003Z" fill="white"/>
<path d="M9.91715 9.76923H9.79346V9.82757L9.91715 9.76923Z" fill="white"/>
<path d="M9.91722 9.76923L9.82003 9.84008L9.78027 9.79006L9.91722 9.76923Z" fill="white"/>
<path d="M9.68311 9.76923L9.78471 9.84008L9.82005 9.79006L9.68311 9.76923Z" fill="white"/>
<path d="M9.68311 9.76923H9.80679V9.82757L9.68311 9.76923Z" fill="white"/>
<path d="M9.87306 9.90257L9.83331 9.79004L9.77588 9.80671L9.87306 9.90257Z" fill="white"/>
<path d="M9.87309 9.90259L9.77148 9.83173L9.81124 9.78589L9.87309 9.90259Z" fill="white"/>
<path d="M9.72729 9.90259L9.8289 9.83173L9.78914 9.78589L9.72729 9.90259Z" fill="white"/>
<path d="M9.72729 9.90257L9.76705 9.79004L9.82448 9.80671L9.72729 9.90257Z" fill="white"/>
<path d="M13.544 6.5517L13.4866 6.71841L13.5749 6.74758L13.544 6.5517Z" fill="white"/>
<path d="M13.5439 6.5517L13.5969 6.71841L13.5085 6.74758L13.5439 6.5517Z" fill="white"/>
<path d="M13.7207 6.67673H13.5308V6.76425L13.7207 6.67673Z" fill="white"/>
<path d="M13.7206 6.67673L13.5659 6.77675L13.5129 6.7059L13.7206 6.67673Z" fill="white"/>
<path d="M13.3628 6.67673L13.5174 6.77675L13.5704 6.7059L13.3628 6.67673Z" fill="white"/>
<path d="M13.3628 6.67673H13.5527V6.76425L13.3628 6.67673Z" fill="white"/>
<path d="M13.6499 6.87261L13.5925 6.7059L13.5042 6.73091L13.6499 6.87261Z" fill="white"/>
<path d="M13.6499 6.87262L13.4998 6.76842L13.5572 6.69757L13.6499 6.87262Z" fill="white"/>
<path d="M13.4336 6.87262L13.5838 6.76842L13.5264 6.69757L13.4336 6.87262Z" fill="white"/>
<path d="M13.4336 6.87261L13.491 6.7059L13.5794 6.73091L13.4336 6.87261Z" fill="white"/>
<path d="M15.2403 9.26907L15.1829 9.43578L15.2712 9.46079L15.2403 9.26907Z" fill="white"/>
<path d="M15.2402 9.26907L15.2976 9.43578L15.2092 9.46079L15.2402 9.26907Z" fill="white"/>
<path d="M15.417 9.38995H15.2314V9.47748L15.417 9.38995Z" fill="white"/>
<path d="M15.4171 9.38995L15.2669 9.48998L15.2139 9.4233L15.4171 9.38995Z" fill="white"/>
<path d="M15.0635 9.38995L15.2137 9.48998L15.2667 9.4233L15.0635 9.38995Z" fill="white"/>
<path d="M15.0635 9.38995H15.249V9.47748L15.0635 9.38995Z" fill="white"/>
<path d="M15.3506 9.58584L15.2932 9.41913L15.2048 9.44413L15.3506 9.58584Z" fill="white"/>
<path d="M15.3506 9.58584L15.2004 9.48165L15.2534 9.4108L15.3506 9.58584Z" fill="white"/>
<path d="M15.1299 9.58584L15.2801 9.48165L15.2271 9.4108L15.1299 9.58584Z" fill="white"/>
<path d="M15.1299 9.58584L15.1873 9.41913L15.2757 9.44413L15.1299 9.58584Z" fill="white"/>
<path d="M15.8454 9.36493L15.8057 9.47746L15.8631 9.49413L15.8454 9.36493Z" fill="white"/>
<path d="M15.8456 9.36493L15.8809 9.47746L15.8235 9.49413L15.8456 9.36493Z" fill="white"/>
<path d="M15.9604 9.44412H15.8367V9.50247L15.9604 9.44412Z" fill="white"/>
<path d="M15.9604 9.44412L15.8632 9.51497L15.8235 9.46913L15.9604 9.44412Z" fill="white"/>
<path d="M15.7261 9.44412L15.8277 9.51497L15.863 9.46913L15.7261 9.44412Z" fill="white"/>
<path d="M15.7261 9.44412H15.8498V9.50247L15.7261 9.44412Z" fill="white"/>
<path d="M15.916 9.5775L15.8807 9.46497L15.8188 9.48164L15.916 9.5775Z" fill="white"/>
<path d="M15.916 9.57748L15.8188 9.50663L15.8542 9.46078L15.916 9.57748Z" fill="white"/>
<path d="M15.7703 9.57748L15.8719 9.50663L15.8365 9.46078L15.7703 9.57748Z" fill="white"/>
<path d="M15.7703 9.5775L15.81 9.46497L15.8674 9.48164L15.7703 9.5775Z" fill="white"/>
<path d="M15.417 9.66086L15.3684 9.79839L15.4435 9.8234L15.417 9.66086Z" fill="white"/>
<path d="M15.4169 9.66086L15.4655 9.79839L15.3904 9.8234L15.4169 9.66086Z" fill="white"/>
<path d="M15.5672 9.76086H15.4082V9.83172L15.5672 9.76086Z" fill="white"/>
<path d="M15.5671 9.76086L15.439 9.84839L15.3948 9.78587L15.5671 9.76086Z" fill="white"/>
<path d="M15.2712 9.76086L15.3949 9.84839L15.4435 9.78587L15.2712 9.76086Z" fill="white"/>
<path d="M15.2712 9.76086H15.4259V9.83172L15.2712 9.76086Z" fill="white"/>
<path d="M15.5097 9.92342L15.4611 9.78589L15.386 9.80673L15.5097 9.92342Z" fill="white"/>
<path d="M15.5097 9.92343L15.386 9.84007L15.4302 9.77756L15.5097 9.92343Z" fill="white"/>
<path d="M15.3286 9.92343L15.4523 9.84007L15.4081 9.77756L15.3286 9.92343Z" fill="white"/>
<path d="M15.3286 9.92342L15.3772 9.78589L15.4479 9.80673L15.3286 9.92342Z" fill="white"/>
<path d="M14.3701 10.5194L14.3215 10.6569L14.3966 10.682L14.3701 10.5194Z" fill="white"/>
<path d="M14.37 10.5194L14.4186 10.6569L14.3435 10.682L14.37 10.5194Z" fill="white"/>
<path d="M14.5201 10.6194H14.3611V10.6945L14.5201 10.6194Z" fill="white"/>
<path d="M14.5202 10.6194L14.3921 10.707L14.3479 10.6486L14.5202 10.6194Z" fill="white"/>
<path d="M14.2244 10.6194L14.3481 10.707L14.3922 10.6486L14.2244 10.6194Z" fill="white"/>
<path d="M14.2244 10.6194H14.379V10.6945L14.2244 10.6194Z" fill="white"/>
<path d="M14.4628 10.7861L14.4142 10.6444L14.3391 10.6694L14.4628 10.7861Z" fill="white"/>
<path d="M14.4628 10.7861L14.3347 10.6986L14.3833 10.6403L14.4628 10.7861Z" fill="white"/>
<path d="M14.2817 10.7861L14.4054 10.6986L14.3613 10.6403L14.2817 10.7861Z" fill="white"/>
<path d="M14.2817 10.7861L14.3259 10.6444L14.401 10.6694L14.2817 10.7861Z" fill="white"/>
<path d="M14.3657 10.9612L14.3259 11.0737L14.3834 11.0904L14.3657 10.9612Z" fill="white"/>
<path d="M14.3656 10.9612L14.4009 11.0737L14.3435 11.0904L14.3656 10.9612Z" fill="white"/>
<path d="M14.4804 11.0446H14.3567V11.1029L14.4804 11.0446Z" fill="white"/>
<path d="M14.4804 11.0446L14.3833 11.1112L14.3435 11.0654L14.4804 11.0446Z" fill="white"/>
<path d="M14.2463 11.0446L14.3479 11.1112L14.3833 11.0654L14.2463 11.0446Z" fill="white"/>
<path d="M14.2463 11.0446H14.37V11.1029L14.2463 11.0446Z" fill="white"/>
<path d="M14.4363 11.1737L14.401 11.0612L14.3391 11.0821L14.4363 11.1737Z" fill="white"/>
<path d="M14.4363 11.1737L14.3391 11.107L14.3745 11.057L14.4363 11.1737Z" fill="white"/>
<path d="M14.2905 11.1737L14.3921 11.107L14.3568 11.057L14.2905 11.1737Z" fill="white"/>
<path d="M14.2905 11.1737L14.3303 11.0612L14.3877 11.0821L14.2905 11.1737Z" fill="white"/>
<path d="M14.8029 10.2235L14.7632 10.336L14.825 10.3569L14.8029 10.2235Z" fill="white"/>
<path d="M14.8028 10.2235L14.8426 10.336L14.7808 10.3569L14.8028 10.2235Z" fill="white"/>
<path d="M14.9223 10.3069H14.7942V10.3652L14.9223 10.3069Z" fill="white"/>
<path d="M14.9221 10.3069L14.8205 10.3735L14.7852 10.3277L14.9221 10.3069Z" fill="white"/>
<path d="M14.6836 10.3069L14.7852 10.3735L14.8205 10.3277L14.6836 10.3069Z" fill="white"/>
<path d="M14.6836 10.3069H14.8073V10.3652L14.6836 10.3069Z" fill="white"/>
<path d="M14.8736 10.436L14.8382 10.3235L14.7764 10.3444L14.8736 10.436Z" fill="white"/>
<path d="M14.8736 10.4361L14.7764 10.3694L14.8117 10.3194L14.8736 10.4361Z" fill="white"/>
<path d="M14.7278 10.4361L14.8294 10.3694L14.794 10.3194L14.7278 10.4361Z" fill="white"/>
<path d="M14.7278 10.436L14.7675 10.3235L14.825 10.3444L14.7278 10.436Z" fill="white"/>
<path d="M15.1519 9.99011L15.1033 10.1276L15.1784 10.1527L15.1519 9.99011Z" fill="white"/>
<path d="M15.152 9.99011L15.2006 10.1276L15.1255 10.1527L15.152 9.99011Z" fill="white"/>
<path d="M15.2977 10.0901H15.1431V10.1651L15.2977 10.0901Z" fill="white"/>
<path d="M15.2977 10.0901L15.1741 10.1776L15.1299 10.1193L15.2977 10.0901Z" fill="white"/>
<path d="M15.0061 10.0901L15.1298 10.1776L15.174 10.1193L15.0061 10.0901Z" fill="white"/>
<path d="M15.0061 10.0901H15.1607V10.1651L15.0061 10.0901Z" fill="white"/>
<path d="M15.2448 10.2527L15.1962 10.1151L15.1211 10.136L15.2448 10.2527Z" fill="white"/>
<path d="M15.2446 10.2527L15.1165 10.1693L15.165 10.1068L15.2446 10.2527Z" fill="white"/>
<path d="M15.0591 10.2527L15.1872 10.1693L15.1386 10.1068L15.0591 10.2527Z" fill="white"/>
<path d="M15.0591 10.2527L15.1077 10.1151L15.1828 10.136L15.0591 10.2527Z" fill="white"/>
<path d="M14.3523 10.1443L14.3125 10.2568L14.3743 10.2777L14.3523 10.1443Z" fill="white"/>
<path d="M14.3524 10.1443L14.3922 10.2568L14.3303 10.2777L14.3524 10.1443Z" fill="white"/>
<path d="M14.4716 10.2277H14.3479V10.286L14.4716 10.2277Z" fill="white"/>
<path d="M14.4717 10.2277L14.3701 10.2985L14.3347 10.2485L14.4717 10.2277Z" fill="white"/>
<path d="M14.2332 10.2277L14.3348 10.2985L14.3701 10.2485L14.2332 10.2277Z" fill="white"/>
<path d="M14.2332 10.2277H14.3613V10.286L14.2332 10.2277Z" fill="white"/>
<path d="M14.4275 10.3569L14.3877 10.2485L14.3303 10.2652L14.4275 10.3569Z" fill="white"/>
<path d="M14.4275 10.3569L14.3259 10.2902L14.3613 10.2443L14.4275 10.3569Z" fill="white"/>
<path d="M14.2817 10.3569L14.3789 10.2902L14.3436 10.2443L14.2817 10.3569Z" fill="white"/>
<path d="M14.2817 10.3569L14.3171 10.2485L14.3789 10.2652L14.2817 10.3569Z" fill="white"/>
<path d="M10.5357 8.02292L10.4871 8.16045L10.5622 8.18546L10.5357 8.02292Z" fill="white"/>
<path d="M10.5355 8.02292L10.5841 8.16045L10.509 8.18546L10.5355 8.02292Z" fill="white"/>
<path d="M10.6815 8.12296H10.5269V8.19797L10.6815 8.12296Z" fill="white"/>
<path d="M10.6813 8.12296L10.5576 8.21048L10.509 8.15213L10.6813 8.12296Z" fill="white"/>
<path d="M10.3855 8.12296L10.5136 8.21048L10.5578 8.15213L10.3855 8.12296Z" fill="white"/>
<path d="M10.3855 8.12296H10.5445V8.19797L10.3855 8.12296Z" fill="white"/>
<path d="M10.6239 8.28965L10.5797 8.14795L10.5046 8.17296L10.6239 8.28965Z" fill="white"/>
<path d="M10.6239 8.28967L10.5002 8.20215L10.5444 8.1438L10.6239 8.28967Z" fill="white"/>
<path d="M10.4429 8.28967L10.571 8.20215L10.5224 8.1438L10.4429 8.28967Z" fill="white"/>
<path d="M10.4429 8.28965L10.4915 8.14795L10.5666 8.17296L10.4429 8.28965Z" fill="white"/>
<path d="M13.3762 7.677L13.3364 7.78953L13.3983 7.8062L13.3762 7.677Z" fill="white"/>
<path d="M13.3761 7.677L13.4158 7.78953L13.354 7.8062L13.3761 7.677Z" fill="white"/>
<path d="M13.4953 7.76035H13.3716V7.81869L13.4953 7.76035Z" fill="white"/>
<path d="M13.4953 7.76035L13.3937 7.82703L13.3584 7.78118L13.4953 7.76035Z" fill="white"/>
<path d="M13.2568 7.76035L13.3584 7.82703L13.3938 7.78118L13.2568 7.76035Z" fill="white"/>
<path d="M13.2568 7.76035H13.3805V7.81869L13.2568 7.76035Z" fill="white"/>
<path d="M13.4468 7.88955L13.4114 7.78119L13.354 7.79786L13.4468 7.88955Z" fill="white"/>
<path d="M13.4468 7.88956L13.3496 7.82287L13.3849 7.77286L13.4468 7.88956Z" fill="white"/>
<path d="M13.3054 7.88956L13.4026 7.82287L13.3673 7.77286L13.3054 7.88956Z" fill="white"/>
<path d="M13.3054 7.88955L13.3408 7.78119L13.4026 7.79786L13.3054 7.88955Z" fill="white"/>
<path d="M12.1922 9.66919L12.1348 9.8359L12.2231 9.86507L12.1922 9.66919Z" fill="white"/>
<path d="M12.1923 9.66919L12.2497 9.8359L12.1614 9.86507L12.1923 9.66919Z" fill="white"/>
<path d="M12.3689 9.79004H12.1833V9.87756L12.3689 9.79004Z" fill="white"/>
<path d="M12.369 9.79004L12.2188 9.89423L12.1658 9.82338L12.369 9.79004Z" fill="white"/>
<path d="M12.0156 9.79004L12.1658 9.89423L12.2188 9.82338L12.0156 9.79004Z" fill="white"/>
<path d="M12.0156 9.79004H12.2012V9.87756L12.0156 9.79004Z" fill="white"/>
<path d="M12.3028 9.98592L12.2453 9.81921L12.157 9.84839L12.3028 9.98592Z" fill="white"/>
<path d="M12.3025 9.98593L12.1523 9.8859L12.2054 9.81088L12.3025 9.98593Z" fill="white"/>
<path d="M12.0818 9.98593L12.232 9.8859L12.179 9.81088L12.0818 9.98593Z" fill="white"/>
<path d="M12.0818 9.98592L12.1392 9.81921L12.2276 9.84839L12.0818 9.98592Z" fill="white"/>
<path d="M12.6958 8.88147L12.6472 9.02317L12.7223 9.04401L12.6958 8.88147Z" fill="white"/>
<path d="M12.6957 8.88147L12.7443 9.02317L12.6692 9.04401L12.6957 8.88147Z" fill="white"/>
<path d="M12.8416 8.98569H12.687V9.05654L12.8416 8.98569Z" fill="white"/>
<path d="M12.8415 8.98569L12.7178 9.06904L12.6692 9.01069L12.8415 8.98569Z" fill="white"/>
<path d="M12.55 8.98569L12.6737 9.06904L12.7179 9.01069L12.55 8.98569Z" fill="white"/>
<path d="M12.55 8.98569H12.7047V9.05654L12.55 8.98569Z" fill="white"/>
<path d="M12.7885 9.14822L12.7399 9.01068L12.6648 9.03152L12.7885 9.14822Z" fill="white"/>
<path d="M12.7885 9.14822L12.6604 9.0607L12.7046 9.00235L12.7885 9.14822Z" fill="white"/>
<path d="M12.603 9.14822L12.7311 9.0607L12.6825 9.00235L12.603 9.14822Z" fill="white"/>
<path d="M12.603 9.14822L12.6516 9.01068L12.7267 9.03152L12.603 9.14822Z" fill="white"/>
<path d="M12.1921 8.51471L12.1436 8.65225L12.2187 8.67725L12.1921 8.51471Z" fill="white"/>
<path d="M12.1923 8.51471L12.2409 8.65225L12.1658 8.67725L12.1923 8.51471Z" fill="white"/>
<path d="M12.338 8.61475H12.1833V8.68977L12.338 8.61475Z" fill="white"/>
<path d="M12.338 8.61475L12.2143 8.70227L12.1702 8.64392L12.338 8.61475Z" fill="white"/>
<path d="M12.0464 8.61475L12.1701 8.70227L12.2143 8.64392L12.0464 8.61475Z" fill="white"/>
<path d="M12.0464 8.61475H12.201V8.68977L12.0464 8.61475Z" fill="white"/>
<path d="M12.2851 8.78144L12.2365 8.63974L12.1614 8.66475L12.2851 8.78144Z" fill="white"/>
<path d="M12.2851 8.78146L12.157 8.69394L12.2056 8.63559L12.2851 8.78146Z" fill="white"/>
<path d="M12.0994 8.78146L12.2275 8.69394L12.1789 8.63559L12.0994 8.78146Z" fill="white"/>
<path d="M12.0994 8.78144L12.148 8.63974L12.2231 8.66475L12.0994 8.78144Z" fill="white"/>
<path d="M11.7548 8.91064L11.7151 9.02317L11.7769 9.04401L11.7548 8.91064Z" fill="white"/>
<path d="M11.755 8.91064L11.7948 9.02317L11.7329 9.04401L11.755 8.91064Z" fill="white"/>
<path d="M11.8742 8.99402H11.7461V9.05237L11.8742 8.99402Z" fill="white"/>
<path d="M11.8743 8.99402L11.7727 9.0607L11.7329 9.01486L11.8743 8.99402Z" fill="white"/>
<path d="M11.6355 8.99402L11.7371 9.0607L11.7724 9.01486L11.6355 8.99402Z" fill="white"/>
<path d="M11.6355 8.99402H11.7592V9.05237L11.6355 8.99402Z" fill="white"/>
<path d="M11.8255 9.12322L11.7901 9.01486L11.7283 9.03153L11.8255 9.12322Z" fill="white"/>
<path d="M11.8255 9.1232L11.7283 9.05651L11.7636 9.0065L11.8255 9.1232Z" fill="white"/>
<path d="M11.6797 9.1232L11.7813 9.05651L11.7459 9.0065L11.6797 9.1232Z" fill="white"/>
<path d="M11.6797 9.12322L11.7194 9.01486L11.7769 9.03153L11.6797 9.12322Z" fill="white"/>
<path d="M11.9713 9.23157L11.9448 9.31075L11.989 9.32326L11.9713 9.23157Z" fill="white"/>
<path d="M11.9713 9.23157L12.0022 9.31075L11.958 9.32326L11.9713 9.23157Z" fill="white"/>
<path d="M12.0551 9.28992H11.9668V9.33159L12.0551 9.28992Z" fill="white"/>
<path d="M12.0552 9.28992L11.9845 9.33576L11.958 9.30242L12.0552 9.28992Z" fill="white"/>
<path d="M11.8875 9.28992L11.9625 9.33576L11.9846 9.30242L11.8875 9.28992Z" fill="white"/>
<path d="M11.8875 9.28992H11.9758V9.33159L11.8875 9.28992Z" fill="white"/>
<path d="M12.0243 9.38162L11.9978 9.30243L11.9536 9.31493L12.0243 9.38162Z" fill="white"/>
<path d="M12.0243 9.3816L11.9536 9.33159L11.9801 9.29825L12.0243 9.3816Z" fill="white"/>
<path d="M11.9229 9.3816L11.9935 9.33159L11.967 9.29825L11.9229 9.3816Z" fill="white"/>
<path d="M11.9229 9.38162L11.9494 9.30243L11.9891 9.31493L11.9229 9.38162Z" fill="white"/>
<path d="M13.4954 10.6194L13.4468 10.7611L13.5219 10.782L13.4954 10.6194Z" fill="white"/>
<path d="M13.4953 10.6194L13.5438 10.7611L13.4688 10.782L13.4953 10.6194Z" fill="white"/>
<path d="M13.6412 10.7195H13.4866V10.7945L13.6412 10.7195Z" fill="white"/>
<path d="M13.641 10.7195L13.5173 10.807L13.4688 10.7486L13.641 10.7195Z" fill="white"/>
<path d="M13.3452 10.7195L13.4733 10.807L13.5175 10.7486L13.3452 10.7195Z" fill="white"/>
<path d="M13.3452 10.7195H13.5042V10.7945L13.3452 10.7195Z" fill="white"/>
<path d="M13.5836 10.8862L13.5395 10.7445L13.4644 10.7695L13.5836 10.8862Z" fill="white"/>
<path d="M13.5837 10.8862L13.46 10.7986L13.5041 10.7403L13.5837 10.8862Z" fill="white"/>
<path d="M13.4026 10.8862L13.5307 10.7986L13.4821 10.7403L13.4026 10.8862Z" fill="white"/>
<path d="M13.4026 10.8862L13.4512 10.7445L13.5263 10.7695L13.4026 10.8862Z" fill="white"/>
<path d="M13.8664 10.286L13.8267 10.3985L13.8885 10.4152L13.8664 10.286Z" fill="white"/>
<path d="M13.8665 10.286L13.9063 10.3985L13.8489 10.4152L13.8665 10.286Z" fill="white"/>
<path d="M13.9857 10.3652H13.8621V10.4277L13.9857 10.3652Z" fill="white"/>
<path d="M13.9858 10.3652L13.8842 10.4361L13.8489 10.3902L13.9858 10.3652Z" fill="white"/>
<path d="M13.7471 10.3652L13.8487 10.4361L13.8884 10.3902L13.7471 10.3652Z" fill="white"/>
<path d="M13.7471 10.3652H13.8752V10.4277L13.7471 10.3652Z" fill="white"/>
<path d="M13.9414 10.4986L13.9017 10.386L13.8442 10.4069L13.9414 10.4986Z" fill="white"/>
<path d="M13.9414 10.4986L13.8398 10.4319L13.8752 10.3819L13.9414 10.4986Z" fill="white"/>
<path d="M13.7957 10.4986L13.8928 10.4319L13.8575 10.3819L13.7957 10.4986Z" fill="white"/>
<path d="M13.7957 10.4986L13.831 10.386L13.8928 10.4069L13.7957 10.4986Z" fill="white"/>
<path d="M13.1508 10.186L13.1111 10.2985L13.1729 10.3152L13.1508 10.186Z" fill="white"/>
<path d="M13.1507 10.186L13.1905 10.2985L13.1287 10.3152L13.1507 10.186Z" fill="white"/>
<path d="M13.2702 10.2693H13.1465V10.3235L13.2702 10.2693Z" fill="white"/>
<path d="M13.27 10.2693L13.1684 10.336L13.1331 10.286L13.27 10.2693Z" fill="white"/>
<path d="M13.0315 10.2693L13.1331 10.336L13.1684 10.286L13.0315 10.2693Z" fill="white"/>
<path d="M13.0315 10.2693H13.1552V10.3235L13.0315 10.2693Z" fill="white"/>
<path d="M13.2215 10.3985L13.1861 10.286L13.1243 10.3068L13.2215 10.3985Z" fill="white"/>
<path d="M13.2215 10.3985L13.1243 10.3277L13.1596 10.2818L13.2215 10.3985Z" fill="white"/>
<path d="M13.0801 10.3985L13.1773 10.3277L13.1419 10.2818L13.0801 10.3985Z" fill="white"/>
<path d="M13.0801 10.3985L13.1154 10.286L13.1728 10.3068L13.0801 10.3985Z" fill="white"/>
<path d="M10.4473 10.0026L10.3899 10.1735L10.4782 10.1985L10.4473 10.0026Z" fill="white"/>
<path d="M10.4474 10.0026L10.5049 10.1735L10.4165 10.1985L10.4474 10.0026Z" fill="white"/>
<path d="M10.624 10.1276H10.4385V10.2151L10.624 10.1276Z" fill="white"/>
<path d="M10.6241 10.1276L10.4739 10.2277L10.4165 10.1568L10.6241 10.1276Z" fill="white"/>
<path d="M10.2705 10.1276L10.4207 10.2277L10.4737 10.1568L10.2705 10.1276Z" fill="white"/>
<path d="M10.2705 10.1276H10.456V10.2151L10.2705 10.1276Z" fill="white"/>
<path d="M10.5577 10.3235L10.4958 10.1526L10.4075 10.1818L10.5577 10.3235Z" fill="white"/>
<path d="M10.5577 10.3235L10.4031 10.2193L10.4605 10.1485L10.5577 10.3235Z" fill="white"/>
<path d="M10.3369 10.3235L10.4871 10.2193L10.4341 10.1485L10.3369 10.3235Z" fill="white"/>
<path d="M10.3369 10.3235L10.3943 10.1526L10.4827 10.1818L10.3369 10.3235Z" fill="white"/>
<path d="M12.1922 11.1529L12.1746 11.2112L12.2011 11.2196L12.1922 11.1529Z" fill="white"/>
<path d="M12.1922 11.1529L12.2099 11.2112L12.1833 11.2196L12.1922 11.1529Z" fill="white"/>
<path d="M12.2496 11.1946H12.1877V11.2238L12.2496 11.1946Z" fill="white"/>
<path d="M12.2496 11.1946L12.201 11.2279L12.1833 11.2071L12.2496 11.1946Z" fill="white"/>
<path d="M12.1348 11.1946L12.1834 11.2279L12.201 11.2071L12.1348 11.1946Z" fill="white"/>
<path d="M12.1348 11.1946H12.1966V11.2238L12.1348 11.1946Z" fill="white"/>
<path d="M12.2275 11.2613L12.2099 11.2071L12.179 11.2154L12.2275 11.2613Z" fill="white"/>
<path d="M12.2275 11.2613L12.179 11.2279L12.1966 11.2029L12.2275 11.2613Z" fill="white"/>
<path d="M12.157 11.2613L12.2056 11.2279L12.1879 11.2029L12.157 11.2613Z" fill="white"/>
<path d="M12.157 11.2613L12.1747 11.2071L12.2056 11.2154L12.157 11.2613Z" fill="white"/>
</g>
<defs>
<clipPath id="clip0_8733_1150">
<rect width="24.38" height="16" fill="white"/>
</clipPath>
</defs>
</svg>
